<?xml version="1.0" encoding="UTF-8"?>
<!DOCTYPE svg PUBLIC "-//W3C//DTD SVG 1.1//EN" "http://www.w3.org/Graphics/SVG/1.1/DTD/svg11.dtd">
<!-- Creator: CorelDRAW -->
<svg xmlns="http://www.w3.org/2000/svg" xml:space="preserve" width="47.6259mm" height="50.1325mm" version="1.1" style="shape-rendering:geometricPrecision; text-rendering:geometricPrecision; image-rendering:optimizeQuality; fill-rule:evenodd; clip-rule:evenodd"
viewBox="0 0 370.97 390.5"
 xmlns:xlink="http://www.w3.org/1999/xlink"
 xmlns:xodm="http://www.corel.com/coreldraw/odm/2003">
 <defs>
  <style type="text/css">
   <![CDATA[
    .fil0 {fill:gray}
   ]]>
  </style>
 </defs>
 <g id="Capa_x0020_1">
  <metadata id="CorelCorpID_0Corel-Layer"/>
  <path class="fil0" d="M117.15 390.5l221.28 0c17.94,0 32.54,-14.6 32.54,-32.54l0 -325.41c0,-17.94 -14.6,-32.54 -32.54,-32.54l-221.28 0c-17.94,0 -32.54,14.6 -32.54,32.54l0 234.3 13.02 0 0 -234.3c0,-10.76 8.76,-19.52 19.53,-19.52l221.28 -0c10.76,0 19.52,8.76 19.52,19.53l0 325.41c0,10.76 -8.76,19.52 -19.52,19.52l-221.28 0c-10.76,0 -19.53,-8.76 -19.53,-19.52l0 -52.07 -13.02 -0 0 52.07c0,17.94 14.6,32.54 32.54,32.54z"/>
  <path class="fil0" d="M110.64 331.92c0,3.59 2.91,6.51 6.51,6.51l221.28 0c3.6,0 6.51,-2.92 6.51,-6.51l0 -299.38c0,-3.59 -2.91,-6.51 -6.51,-6.51l-221.28 -0c-3.6,0 -6.51,2.92 -6.51,6.51l0 234.3 13.02 0 0 -227.79 208.26 0 0 286.36 -208.26 0 0 -19.52 -13.02 -0 0 26.03z"/>
  <rect class="fil0" x="195.25" y="351.45" width="65.08" height="13.02"/>
  <path class="fil0" d="M19.52 390.5c10.76,0 19.52,-8.76 19.52,-19.52l0 -299.38c0,-1.01 -0.23,-2.01 -0.68,-2.91l-13.02 -26.03c-2.21,-4.41 -9.43,-4.41 -11.64,0l-13.02 26.03c-0.45,0.9 -0.69,1.9 -0.69,2.91l0 26.03 13.02 0 0 -24.5 6.51 -13.02 6.51 13.02 0 258.79 -13.02 0 0 -221.28 -13.02 0 0 260.33c0,10.76 8.76,19.52 19.52,19.52zm6.51 -45.56l0 26.03c0,3.59 -2.92,6.51 -6.51,6.51 -3.59,0 -6.51,-2.92 -6.51,-6.51l0 -26.03 13.02 0z"/>
  <path class="fil0" d="M26.03 0l-6.51 0c-3.6,0 -6.51,2.92 -6.51,6.51l0 6.51 13.02 0 0 -13.02z"/>
  <rect class="fil0" x="58.57" y="95.92" width="13.02" height="12.72"/>
  <rect class="fil0" x="58.57" y="70.48" width="13.02" height="12.72"/>
  <rect class="fil0" x="58.57" y="121.36" width="13.02" height="12.72"/>
  <rect class="fil0" x="58.57" y="172.25" width="13.02" height="12.72"/>
  <rect class="fil0" x="58.57" y="197.69" width="13.02" height="12.72"/>
  <rect class="fil0" x="58.57" y="146.81" width="13.02" height="12.72"/>
  <rect class="fil0" x="58.57" y="223.13" width="13.02" height="12.72"/>
  <rect class="fil0" x="117.57" y="279.86" width="12.72" height="13.02"/>
  <path class="fil0" d="M71.59 248.58l-13.02 0 0 5.25c0,2.99 0.35,5.98 1.01,8.88l12.67 -2.95c-0.44,-1.93 -0.67,-3.92 -0.67,-5.93l0 -5.25z"/>
  <path class="fil0" d="M104.84 292.87l0 -13.02 -7.21 0c-1.49,0 -2.97,-0.13 -4.4,-0.37l-2.17 12.83c2.14,0.36 4.34,0.55 6.56,0.55l7.22 0z"/>
  <rect class="fil0" x="58.57" y="45.03" width="13.02" height="12.72"/>
  <path class="fil0" d="M76.88 286.91l6.92 -11.02c-2.9,-1.82 -5.38,-4.15 -7.38,-6.94l-10.58 7.58c2.99,4.17 6.7,7.66 11.03,10.38z"/>
  <path class="fil0" d="M70.76 31.03c-1.04,-5.02 -3.05,-9.72 -5.94,-13.97l-10.75 7.33c1.93,2.83 3.26,5.95 3.96,9.29l12.74 -2.66z"/>
  <path class="fil0" d="M54.02 6.43c-4.3,-2.83 -9.03,-4.75 -14.05,-5.72l-2.47 12.78c3.34,0.64 6.5,1.93 9.36,3.82l7.16 -10.88z"/>
  <path class="fil0" d="M139.77 170.18l6.83 11.08 22.62 -13.91 0 112.51 -26.03 0 0 13.02 26.03 0 0 13.02 13.02 -0 0 -13.02 39.05 0 0 13.02 13.02 -0 0 -13.02 39.05 0 0 13.02 13.02 -0 0 -13.02 26.03 0 0 -13.02 -26.03 0 0 -13.02 -13.02 0 0 13.02 -39.05 0 0 -13.02 -13.02 0 0 13.02 -39.05 0 0 -26.03 97.62 0c3.6,0 6.51,-2.92 6.51,-6.51l0 -65.08c0,-2.25 -1.16,-4.33 -3.06,-5.52l-52.07 -32.54c-2.11,-1.31 -4.79,-1.31 -6.91,0l-42.1 26.31 0 -11.15 45.56 -28.04 81.2 49.96 6.83 -11.08 -42.47 -26.13 0 -20.39 -13.02 0 0 12.38 -29.13 -17.92c-2.1,-1.29 -4.73,-1.29 -6.83,0l-42.14 25.93 0 -59.44 39.05 0 0 13.02 13.02 0 0 -13.02 39.05 0 0 13.02 13.02 0 0 -13.02 26.03 0 0 -13.02 -26.03 0 0 -13.02 -13.02 0 0 13.02 -39.05 0 0 -13.02 -13.02 0 0 13.02 -39.05 0 0 -13.02 -13.02 0 0 13.02 -26.03 0 0 13.02 26.03 0 0 67.45 -29.44 18.12zm94.53 70.63l-13.02 0 0 -26.03 13.02 0 0 26.03zm-6.51 -83.44l45.56 28.47 0 54.97 -26.03 0 0 -32.54c0,-3.59 -2.91,-6.51 -6.51,-6.51l-26.03 0c-3.6,0 -6.51,2.92 -6.51,6.51l0 32.54 -26.03 0 0 -54.96 45.56 -28.48z"/>
 </g>
</svg>
