<?xml version="1.0" encoding="UTF-8"?>
<!DOCTYPE svg PUBLIC "-//W3C//DTD SVG 1.1//EN" "http://www.w3.org/Graphics/SVG/1.1/DTD/svg11.dtd">
<!-- Creator: CorelDRAW -->
<svg xmlns="http://www.w3.org/2000/svg" xml:space="preserve" width="35.321mm" height="50.8549mm" version="1.1" style="shape-rendering:geometricPrecision; text-rendering:geometricPrecision; image-rendering:optimizeQuality; fill-rule:evenodd; clip-rule:evenodd"
viewBox="0 0 144.86 208.57"
 xmlns:xlink="http://www.w3.org/1999/xlink"
 xmlns:xodm="http://www.corel.com/coreldraw/odm/2003">
 <defs>
  <style type="text/css">
   <![CDATA[
    .fil0 {fill:gray}
   ]]>
  </style>
 </defs>
 <g id="Capa_x0020_1">
  <metadata id="CorelCorpID_0Corel-Layer"/>
  <path class="fil0" d="M142.34 38.03l-67.54 -37.41c-1.47,-0.82 -3.27,-0.82 -4.74,0l-67.54 37.41c-1.55,0.86 -2.52,2.5 -2.52,4.28l0 92.14c0,2.7 2.19,4.89 4.89,4.89l48.55 0 37.97 0 48.55 0c2.7,0 4.89,-2.19 4.89,-4.89l0 -92.14c0.01,-1.78 -0.96,-3.41 -2.52,-4.28zm-69.91 -27.55l62.66 34.7 0 7.31 -60.29 -33.39c-1.47,-0.82 -3.27,-0.82 -4.74,0l-60.29 33.39 0 -7.31 62.66 -34.7zm-14.1 119.07l0 -48.86 28.2 0 0 48.86 -28.2 0zm37.97 0l0 -53.75c0,-2.7 -2.19,-4.89 -4.89,-4.89l-37.97 0c-2.7,0 -4.89,2.19 -4.89,4.89l0 53.75 -38.78 0 0 -65.88 62.66 -34.71 62.66 34.7 0 65.88 -38.78 0 0 0z"/>
  <path class="fil0" d="M139.98 154.12l-135.09 0c-2.7,0 -4.89,2.19 -4.89,4.89l0 44.67c0,2.7 2.19,4.89 4.89,4.89l135.08 0c2.7,0 4.89,-2.19 4.89,-4.89l-0 -44.67c0,-2.7 -2.19,-4.89 -4.88,-4.89zm-4.89 44.67l-125.31 0 0 -34.9 8.07 0 0 12.42c0,2.7 2.19,4.89 4.89,4.89 2.7,0 4.89,-2.19 4.89,-4.89l0 -12.42 10.1 0 0 20.8c0,2.7 2.19,4.89 4.89,4.89 2.7,0 4.89,-2.19 4.89,-4.89l0 -20.8 10.1 0 0 12.42c0,2.7 2.19,4.89 4.89,4.89 2.7,0 4.89,-2.19 4.89,-4.89l0 -12.42 10.11 0 0 20.8c0,2.7 2.19,4.89 4.89,4.89 2.7,0 4.89,-2.19 4.89,-4.89l0 -20.8 10.1 0 0 12.42c0,2.7 2.19,4.89 4.89,4.89 2.7,0 4.89,-2.19 4.89,-4.89l0 -12.42 10.11 0 0 20.8c0,2.7 2.19,4.89 4.89,4.89 2.7,0 4.89,-2.19 4.89,-4.89l0 -20.8 8.07 0 0 34.9 -0.01 0z"/>
 </g>
</svg>
