<?xml version="1.0" encoding="UTF-8"?>
<!DOCTYPE svg PUBLIC "-//W3C//DTD SVG 1.1//EN" "http://www.w3.org/Graphics/SVG/1.1/DTD/svg11.dtd">
<!-- Creator: CorelDRAW -->
<svg xmlns="http://www.w3.org/2000/svg" xml:space="preserve" width="43.3872mm" height="41.6386mm" version="1.1" style="shape-rendering:geometricPrecision; text-rendering:geometricPrecision; image-rendering:optimizeQuality; fill-rule:evenodd; clip-rule:evenodd"
viewBox="0 0 218.41 209.61"
 xmlns:xlink="http://www.w3.org/1999/xlink"
 xmlns:xodm="http://www.corel.com/coreldraw/odm/2003">
 <defs>
  <style type="text/css">
   <![CDATA[
    .fil0 {fill:gray}
   ]]>
  </style>
 </defs>
 <g id="Capa_x0020_1">
  <metadata id="CorelCorpID_0Corel-Layer"/>
  <path class="fil0" d="M56.89 20.61c-4,2.36 -7.56,-3.71 -3.56,-6.07 51.3,-30.35 117.44,-11.46 145.43,40.46 0.92,1.73 0.29,3.85 -1.4,4.77 -1.73,0.92 -3.85,0.29 -4.77,-1.4 -26.35,-48.89 -88.2,-65.85 -135.7,-37.77l0 0zm103.67 165.66c1.64,-1.06 3.81,-0.63 4.87,1.01 1.06,1.64 0.63,3.81 -0.96,4.87 -35.65,23.6 -82.09,23.27 -117.3,-1.01 -17.39,-11.95 -30.97,-29.05 -38.59,-49.04 -0.67,-1.83 0.24,-3.85 2.02,-4.53 1.83,-0.72 3.85,0.24 4.58,2.02 22.35,58.82 93.55,81.17 145.38,46.68l0 0zm-37.81 -76.55c0,4.62 -7.03,4.62 -7.03,0 0,-15.61 18.98,-23.51 30.06,-12.43 3.18,3.18 5.15,7.61 5.15,12.43 0,17 -15.32,13.01 -15.99,23.85 -0.29,4.62 -7.32,4.19 -7.03,-0.43 1.01,-15.75 15.99,-11.32 15.99,-23.36 0,-9.35 -11.42,-14.11 -18.02,-7.47 -1.93,1.83 -3.13,4.48 -3.13,7.42l0 0zm38.73 0c0,4.62 -7.03,4.62 -7.03,0 0,-15.61 18.98,-23.51 30.06,-12.43 3.18,3.18 5.15,7.61 5.15,12.43 0,17 -15.32,13.01 -15.99,23.85 -0.29,4.62 -7.32,4.19 -7.03,-0.43 1.01,-15.75 15.99,-11.32 15.99,-23.36 0,-9.35 -11.42,-14.11 -18.02,-7.47 -1.93,1.83 -3.13,4.48 -3.13,7.42l0 0zm5.11 32.61c0,-4.67 7.03,-4.67 7.03,0l0 2.22c0,4.62 -7.03,4.62 -7.03,0l0 -2.22zm-38.73 0c0,-4.67 7.03,-4.67 7.03,0l0 2.22c0,4.62 -7.03,4.62 -7.03,0l0 -2.22zm-26.16 -72.93l22.93 0 0 -26.01c0,-4.34 -3.56,-7.95 -7.95,-7.95l-101.69 0c-4.34,0 -7.95,3.57 -7.95,7.95l0 69.32c0,4.34 3.56,7.95 7.95,7.95l15.9 0c1.98,0 3.52,1.59 3.52,3.52l0 17.87 20.38 -20.38c0.72,-0.67 1.59,-1.01 2.5,-1.01l29.43 0 0 -36.23c0,-8.29 6.7,-15.03 14.98,-15.03l0 0zm30.01 0l71.73 0c8.24,0 14.98,6.74 14.98,14.98l0 69.32c0,8.24 -6.74,14.98 -14.98,14.98l-12.38 0 0 22.83c0,3.13 -3.81,4.72 -6.02,2.46l-25.34 -25.34 -58 0c-8.24,0 -14.98,-6.74 -14.98,-14.98l0 -26.06 -27.99 0 -25.34 25.39c-2.22,2.26 -6.02,0.67 -6.02,-2.46l0 -22.88 -12.38 0c-8.24,0 -14.98,-6.74 -14.98,-14.98l0 -69.27c0,-8.24 6.74,-14.98 14.98,-14.98l101.74 0c8.24,0 14.98,6.74 14.98,14.98l0 26.01zm71.73 7.03l-101.74 0c-4.34,0 -7.95,3.56 -7.95,7.95l0 69.32c0,4.34 3.56,7.95 7.95,7.95l59.44 0c0.92,0 1.83,0.34 2.5,1.01l20.38 20.38 0 -17.87c0,-1.93 1.59,-3.52 3.52,-3.52l15.9 0c4.34,0 7.95,-3.56 7.95,-7.95l0 -69.32c0,-4.38 -3.61,-7.95 -7.95,-7.95l0 0zm-108.58 -24.23c4.67,0 4.67,7.03 0,7.03l-41.33 0c-4.62,0 -4.62,-7.03 0,-7.03l41.33 0zm-21.77 42.63c4.62,0 4.62,7.03 0,7.03l-50.77 0c-4.62,0 -4.62,-7.03 0,-7.03l50.77 0zm0 -21.29c4.62,0 4.62,7.03 0,7.03l-50.77 0c-4.62,0 -4.62,-7.03 0,-7.03l50.77 0z"/>
 </g>
</svg>
